<svg width="568" height="278" viewBox="0 0 568 278" fill="none" xmlns="http://www.w3.org/2000/svg">
<rect width="568" height="278" rx="6" fill="#F5F9FE"/>
<path fill-rule="evenodd" clip-rule="evenodd" d="M424.546 148C435.246 148 444 140.472 444 131.271C444 122.07 435.246 114.542 424.546 114.542C422.114 114.542 419.682 114.961 417.737 115.588C417.251 106.805 408.739 99.6957 398.283 99.6957C388.556 99.6957 380.045 105.969 378.829 114.333C377.01 113.889 375.126 113.677 373.236 113.706C362.536 113.706 353.782 121.234 353.782 130.435C353.782 139.636 362.293 147.164 373.236 147.164L424.303 147.582L424.546 148ZM199.608 80.6667C206.903 80.6667 213.226 75.4389 213.226 68.9565C213.226 62.4741 207.146 57.2464 199.608 57.2464C197.906 57.2464 196.203 57.4555 194.744 58.0828C194.501 51.8095 188.422 47 181.127 47C173.831 47 168.238 51.6004 167.509 57.4555C166.241 57.1582 164.931 57.0174 163.618 57.0373C156.323 57.0373 150 62.265 150 68.7474C150 75.2298 156.079 80.4576 163.618 80.4576L199.608 80.8758V80.6667Z" fill="url(#paint0_linear_96_2382)"/>
<path fill-rule="evenodd" clip-rule="evenodd" d="M183.615 205.496C178.815 185.996 168.015 167.996 153.015 154.496L153.615 153.746C168.615 167.246 179.715 185.246 184.665 204.746L183.615 205.046V205.496Z" fill="#C7F2C6"/>
<path fill-rule="evenodd" clip-rule="evenodd" d="M182.415 177.745C184.515 174.145 182.715 169.195 182.715 169.195C182.715 169.195 177.465 169.945 175.215 173.695C172.965 177.445 174.915 182.245 174.915 182.245C174.915 182.245 180.165 181.495 182.415 177.745ZM166.365 174.745C162.165 174.445 158.565 178.195 158.565 178.195C158.565 178.195 161.565 182.695 165.765 182.995C169.965 183.295 173.565 179.545 173.565 179.545C173.565 179.545 170.565 175.045 166.365 174.745ZM160.965 164.995C157.365 164.695 154.215 167.995 154.215 167.995C154.215 167.995 156.765 171.745 160.215 172.045C163.665 172.345 166.965 169.045 166.965 169.045C166.965 169.045 164.415 165.295 160.965 164.995ZM172.965 165.145C174.165 162.145 172.065 158.245 172.065 158.245C172.065 158.245 167.865 159.745 166.665 162.745C165.465 165.745 167.415 169.495 167.415 169.495C167.415 169.495 171.615 167.995 172.815 164.995L172.965 165.145ZM163.515 155.995C164.565 153.295 162.765 149.995 162.765 149.995C162.765 149.995 159.315 151.045 158.265 153.745C157.215 156.445 159.015 159.745 159.015 159.745C159.015 159.745 162.465 158.695 163.515 155.995ZM153.015 156.895C150.015 157.345 148.515 160.645 148.515 160.645C148.515 160.645 150.915 163.495 153.915 162.745C156.915 161.995 158.415 158.995 158.415 158.995C158.415 158.995 155.715 156.595 152.865 157.045L153.015 156.895ZM152.715 149.545C150.615 147.595 147.015 148.045 147.015 148.045C147.015 148.045 146.715 151.645 148.815 153.595C150.915 155.545 154.515 155.095 154.515 155.095C154.515 155.095 154.815 151.495 152.715 149.545ZM173.715 187.795C169.515 186.745 164.715 190.045 164.715 190.045C164.715 190.045 167.115 195.295 171.315 196.345C175.515 197.395 180.315 194.095 180.315 194.095C180.315 194.095 177.915 188.845 173.715 187.795ZM189.165 190.195C191.415 186.445 189.465 181.195 189.465 181.195C189.465 181.195 183.765 181.945 181.515 185.695C179.265 189.445 181.215 194.695 181.215 194.695C181.215 194.695 186.915 193.945 189.165 190.195Z" fill="#C7F2C6"/>
<path fill-rule="evenodd" clip-rule="evenodd" d="M369.272 206.91C379.669 192.437 394.584 181.128 411.399 175.425L411.556 176.311C394.94 182.284 380.295 193.393 369.872 207.718L369.003 207.109L369.272 206.91Z" fill="#C7F2C6"/>
<path fill-rule="evenodd" clip-rule="evenodd" d="M380.098 185.355C379.621 181.784 382.646 178.205 382.646 178.205C382.646 178.205 386.712 180.535 387.362 184.228C388.013 187.921 384.814 191.378 384.814 191.378C384.814 191.378 380.748 189.048 380.246 185.329L380.098 185.355ZM394.426 188.01C397.936 188.915 399.655 193.486 399.655 193.486C399.655 193.486 395.561 196.187 392.32 195.082C389.08 193.978 386.648 189.684 386.648 189.684C386.648 189.684 390.742 186.983 393.982 188.088L394.426 188.01ZM401.622 182.173C404.837 183.13 406.104 186.867 406.104 186.867C406.104 186.867 402.671 188.994 399.778 188.133C396.885 187.272 395.296 183.44 395.296 183.44C395.296 183.44 398.729 181.312 401.622 182.173ZM391.822 178.416C391.745 175.383 394.83 173.012 394.83 173.012C394.83 173.012 397.862 175.525 397.791 178.583C397.721 181.642 394.783 183.987 394.783 183.987C394.783 183.987 391.751 181.475 391.822 178.416ZM402.363 174.275C402.39 171.833 404.911 169.714 404.911 169.714C404.911 169.714 407.395 171.713 407.247 174.328C407.098 176.944 404.699 178.889 404.699 178.889C404.699 178.889 402.215 176.89 402.363 174.275ZM410.738 178.587C412.771 179.752 413.074 183.202 413.074 183.202C413.074 183.202 410.198 184.166 407.843 182.905C405.489 181.644 405.508 178.29 405.508 178.29C405.508 178.29 408.384 177.327 410.738 178.587ZM413.347 172.645C415.633 171.785 418.482 173.263 418.482 173.263C418.482 173.263 417.525 176.478 415.066 177.216C412.607 177.954 409.931 176.597 409.931 176.597C409.931 176.597 410.888 173.383 413.347 172.645Z" fill="#C7F2C6"/>
<path d="M372.353 159H195.757C193.682 159 192 160.682 192 162.757V228.243C192 230.318 193.682 232 195.757 232H372.353C374.428 232 376.11 230.318 376.11 228.243V162.757C376.11 160.682 374.428 159 372.353 159Z" fill="#F9F8F8"/>
<g opacity="0.2">
<path d="M309.463 175.953H282.67C280.743 175.953 279.181 177.505 279.181 179.419C279.181 181.334 280.743 182.886 282.67 182.886H309.463C311.39 182.886 312.952 181.334 312.952 179.419C312.952 177.505 311.39 175.953 309.463 175.953Z" fill="#DEDEDE"/>
<path d="M299.175 207.711H282.67C280.743 207.711 279.181 209.263 279.181 211.178C279.181 213.092 280.743 214.644 282.67 214.644H299.175C301.102 214.644 302.664 213.092 302.664 211.178C302.664 209.263 301.102 207.711 299.175 207.711Z" fill="#DEDEDE"/>
<path d="M325.567 207.711H309.061C307.134 207.711 305.572 209.263 305.572 211.178C305.572 213.092 307.134 214.644 309.061 214.644H325.567C327.494 214.644 329.056 213.092 329.056 211.178C329.056 209.263 327.494 207.711 325.567 207.711Z" fill="#DEDEDE"/>
<path d="M317.067 190.266H280.88C280.188 190.266 279.627 190.817 279.627 191.496C279.627 192.176 280.188 192.726 280.88 192.726H317.067C317.758 192.726 318.319 192.176 318.319 191.496C318.319 190.817 317.758 190.266 317.067 190.266Z" fill="#DEDEDE"/>
<path d="M330.038 197.423H293.852C293.16 197.423 292.599 197.974 292.599 198.653C292.599 199.333 293.16 199.883 293.852 199.883H330.038C330.73 199.883 331.291 199.333 331.291 198.653C331.291 197.974 330.73 197.423 330.038 197.423Z" fill="#DEDEDE"/>
<path d="M330.04 190.266H322.48C321.789 190.266 321.228 190.817 321.228 191.496C321.228 192.176 321.789 192.726 322.48 192.726H330.04C330.732 192.726 331.292 192.176 331.292 191.496C331.292 190.817 330.732 190.266 330.04 190.266Z" fill="#DEDEDE"/>
<path d="M288.439 197.423H280.88C280.188 197.423 279.627 197.974 279.627 198.653C279.627 199.333 280.188 199.883 280.88 199.883H288.439C289.131 199.883 289.692 199.333 289.692 198.653C289.692 197.974 289.131 197.423 288.439 197.423Z" fill="#DEDEDE"/>
<path d="M343.012 190.266H335.452C334.76 190.266 334.2 190.817 334.2 191.496C334.2 192.176 334.76 192.726 335.452 192.726H343.012C343.703 192.726 344.264 192.176 344.264 191.496C344.264 190.817 343.703 190.266 343.012 190.266Z" fill="#DEDEDE"/>
<path d="M343.012 197.423H335.452C334.76 197.423 334.2 197.974 334.2 198.653C334.2 199.333 334.76 199.883 335.452 199.883H343.012C343.703 199.883 344.264 199.333 344.264 198.653C344.264 197.974 343.703 197.423 343.012 197.423Z" fill="#DEDEDE"/>
</g>
<path fill-rule="evenodd" clip-rule="evenodd" d="M195.221 159H264.463V232H195.221C193.431 232 192 230.569 192 228.779V162.221C192 160.431 193.431 159 195.221 159Z" fill="url(#paint1_linear_96_2382)" fill-opacity="0.2"/>
<rect opacity="0.2" x="216.663" y="195.211" width="24.0755" height="16.0503" rx="2" fill="#F5AAAA"/>
<path opacity="0.2" d="M227.904 180.609C228.304 180.083 229.096 180.083 229.496 180.609L245.55 201.731C246.05 202.39 245.581 203.336 244.754 203.336H212.646C211.819 203.336 211.349 202.39 211.85 201.731L227.904 180.609Z" fill="#F08080"/>
<path d="M382.816 120H186.184C183.873 120 182 121.873 182 124.184V197.099C182 199.41 183.873 201.283 186.184 201.283H382.816C385.127 201.283 387 199.41 387 197.099V124.184C387 121.873 385.127 120 382.816 120Z" fill="#FBFBFB"/>
<g opacity="0.2">
<path d="M312.79 138.876H282.956C280.811 138.876 279.071 140.604 279.071 142.736C279.071 144.868 280.811 146.596 282.956 146.596H312.79C314.935 146.596 316.675 144.868 316.675 142.736C316.675 140.604 314.935 138.876 312.79 138.876Z" fill="#DEDEDE"/>
<path d="M301.334 174.238H282.956C280.811 174.238 279.071 175.966 279.071 178.098C279.071 180.23 280.811 181.958 282.956 181.958H301.334C303.48 181.958 305.219 180.23 305.219 178.098C305.219 175.966 303.48 174.238 301.334 174.238Z" fill="#DEDEDE"/>
<path d="M330.721 174.238H312.342C310.197 174.238 308.458 175.966 308.458 178.098C308.458 180.23 310.197 181.958 312.342 181.958H330.721C332.866 181.958 334.605 180.23 334.605 178.098C334.605 175.966 332.866 174.238 330.721 174.238Z" fill="#DEDEDE"/>
<path d="M321.256 154.814H280.963C280.193 154.814 279.569 155.427 279.569 156.184C279.569 156.94 280.193 157.553 280.963 157.553H321.256C322.026 157.553 322.651 156.94 322.651 156.184C322.651 155.427 322.026 154.814 321.256 154.814Z" fill="#DEDEDE"/>
<path d="M335.7 162.783H295.407C294.637 162.783 294.012 163.396 294.012 164.153C294.012 164.909 294.637 165.522 295.407 165.522H335.7C336.47 165.522 337.094 164.909 337.094 164.153C337.094 163.396 336.47 162.783 335.7 162.783Z" fill="#DEDEDE"/>
<path d="M335.701 154.814H327.284C326.514 154.814 325.889 155.427 325.889 156.184C325.889 156.94 326.514 157.553 327.284 157.553H335.701C336.471 157.553 337.095 156.94 337.095 156.184C337.095 155.427 336.471 154.814 335.701 154.814Z" fill="#DEDEDE"/>
<path d="M289.381 162.783H280.963C280.193 162.783 279.569 163.396 279.569 164.153C279.569 164.909 280.193 165.522 280.963 165.522H289.381C290.151 165.522 290.775 164.909 290.775 164.153C290.775 163.396 290.151 162.783 289.381 162.783Z" fill="#DEDEDE"/>
<path d="M350.144 154.814H341.727C340.957 154.814 340.333 155.427 340.333 156.184C340.333 156.94 340.957 157.553 341.727 157.553H350.144C350.914 157.553 351.539 156.94 351.539 156.184C351.539 155.427 350.914 154.814 350.144 154.814Z" fill="#DEDEDE"/>
<path d="M350.144 162.783H341.727C340.957 162.783 340.333 163.396 340.333 164.153C340.333 164.909 340.957 165.522 341.727 165.522H350.144C350.914 165.522 351.539 164.909 351.539 164.153C351.539 163.396 350.914 162.783 350.144 162.783Z" fill="#DEDEDE"/>
</g>
<path fill-rule="evenodd" clip-rule="evenodd" d="M185.586 120H262.685V201.283H185.586C183.594 201.283 182 199.689 182 197.697V123.586C182 121.594 183.594 120 185.586 120Z" fill="url(#paint2_linear_96_2382)" fill-opacity="0.2"/>
<rect opacity="0.2" x="209.461" y="160.319" width="26.8072" height="17.8715" rx="2" fill="#F5AAAA"/>
<path opacity="0.2" d="M222.864 142.895L242.985 169.367H202.744L222.864 142.895Z" fill="#FFD981"/>
<g filter="url(#filter0_d_96_2382)">
<path d="M387.51 86H181.386C178.964 86 177 87.9635 177 90.3856V166.821C177 169.243 178.964 171.207 181.386 171.207H387.51C389.933 171.207 391.896 169.243 391.896 166.821V90.3856C391.896 87.9635 389.933 86 387.51 86Z" fill="black"/>
</g>
<path d="M387.51 86H181.386C178.964 86 177 87.9635 177 90.3856V166.821C177 169.243 178.964 171.207 181.386 171.207H387.51C389.933 171.207 391.896 169.243 391.896 166.821V90.3856C391.896 87.9635 389.933 86 387.51 86Z" fill="white"/>
<path d="M314.103 105.788H282.829C280.58 105.788 278.757 107.599 278.757 109.834C278.757 112.068 280.58 113.88 282.829 113.88H314.103C316.352 113.88 318.175 112.068 318.175 109.834C318.175 107.599 316.352 105.788 314.103 105.788Z" fill="#E0E1E3" stroke="#E0E1E3" stroke-width="0.26105"/>
<path d="M302.095 142.856H282.829C280.58 142.856 278.757 144.668 278.757 146.903C278.757 149.137 280.58 150.949 282.829 150.949H302.095C304.344 150.949 306.167 149.137 306.167 146.903C306.167 144.668 304.344 142.856 302.095 142.856Z" fill="#E0E1E3" stroke="#E0E1E3" stroke-width="0.26105"/>
<path d="M332.898 142.856H313.633C311.384 142.856 309.561 144.668 309.561 146.903C309.561 149.137 311.384 150.949 313.633 150.949H332.898C335.148 150.949 336.971 149.137 336.971 146.903C336.971 144.668 335.148 142.856 332.898 142.856Z" fill="#E0E1E3" stroke="#E0E1E3" stroke-width="0.26105"/>
<path d="M322.979 122.495H280.741C279.933 122.495 279.279 123.137 279.279 123.93C279.279 124.723 279.933 125.366 280.741 125.366H322.979C323.786 125.366 324.44 124.723 324.44 123.93C324.44 123.137 323.786 122.495 322.979 122.495Z" fill="#E0E1E3" stroke="#E0E1E3" stroke-width="0.26105"/>
<path d="M338.12 130.848H295.882C295.074 130.848 294.42 131.491 294.42 132.284C294.42 133.077 295.074 133.72 295.882 133.72H338.12C338.927 133.72 339.582 133.077 339.582 132.284C339.582 131.491 338.927 130.848 338.12 130.848Z" fill="#E0E1E3" stroke="#E0E1E3" stroke-width="0.26105"/>
<path d="M338.119 122.495H329.296C328.488 122.495 327.834 123.137 327.834 123.93C327.834 124.723 328.488 125.366 329.296 125.366H338.119C338.927 125.366 339.581 124.723 339.581 123.93C339.581 123.137 338.927 122.495 338.119 122.495Z" fill="#E0E1E3" stroke="#E0E1E3" stroke-width="0.26105"/>
<path d="M289.564 130.848H280.741C279.933 130.848 279.279 131.491 279.279 132.284C279.279 133.077 279.933 133.72 280.741 133.72H289.564C290.372 133.72 291.026 133.077 291.026 132.284C291.026 131.491 290.372 130.848 289.564 130.848Z" fill="#E0E1E3" stroke="#E0E1E3" stroke-width="0.26105"/>
<path d="M353.26 122.495H344.437C343.63 122.495 342.975 123.137 342.975 123.93C342.975 124.723 343.63 125.366 344.437 125.366H353.26C354.068 125.366 354.722 124.723 354.722 123.93C354.722 123.137 354.068 122.495 353.26 122.495Z" fill="#E0E1E3" stroke="#E0E1E3" stroke-width="0.26105"/>
<path d="M353.26 130.848H344.437C343.63 130.848 342.975 131.491 342.975 132.284C342.975 133.077 343.63 133.72 344.437 133.72H353.26C354.068 133.72 354.722 133.077 354.722 132.284C354.722 131.491 354.068 130.848 353.26 130.848Z" fill="#E0E1E3" stroke="#E0E1E3" stroke-width="0.26105"/>
<path fill-rule="evenodd" clip-rule="evenodd" d="M180.759 86H261.58V171.207H180.759C178.671 171.207 177 169.536 177 167.448V89.7591C177 87.6707 178.671 86 180.759 86Z" fill="url(#paint3_linear_96_2382)" fill-opacity="0.65"/>
<rect x="202.228" y="128.829" width="34.7568" height="23.1712" rx="2.47368" fill="#FAD5D5"/>
<path d="M218.62 106.296C219.115 105.644 220.095 105.644 220.59 106.296L244.183 137.337C244.802 138.151 244.221 139.322 243.198 139.322H196.012C194.989 139.322 194.408 138.151 195.027 137.337L218.62 106.296Z" fill="#F5AAAA"/>
<rect x="213.623" y="143.342" width="12.3684" height="8.65788" fill="#F5AAAA"/>
<g filter="url(#filter1_ddd_96_2382)">
<rect x="133" y="87" width="97.2145" height="24" rx="12" fill="white"/>
<path d="M145.958 98.807C145.912 98.754 145.886 98.686 145.886 98.6155C145.886 98.5451 145.912 98.4771 145.958 98.424L147.158 97.083C147.211 97.0367 147.279 97.0112 147.349 97.0112C147.42 97.0112 147.488 97.0367 147.541 97.083L149.648 99.046C149.701 99.0926 149.769 99.1183 149.839 99.1183C149.91 99.1183 149.978 99.0926 150.031 99.046L154.148 94.019C154.196 93.9673 154.261 93.9341 154.331 93.9253C154.401 93.9165 154.472 93.9327 154.531 93.971L155.916 95.12C155.963 95.173 155.988 95.2411 155.988 95.3115C155.988 95.382 155.963 95.4501 155.916 95.503L150.266 102.445C150.247 102.47 150.224 102.492 150.197 102.508C150.17 102.524 150.14 102.535 150.109 102.539C150.077 102.544 150.046 102.542 150.015 102.534C149.985 102.526 149.956 102.512 149.931 102.493L145.958 98.807Z" fill="#23262A"/>
<path d="M151.894 101.536C153.57 101.728 154.767 102.206 154.767 102.736C154.767 103.454 152.567 104.077 149.883 104.077C147.199 104.077 145 103.451 145 102.736C145 102.209 146.149 101.731 147.825 101.536C147.873 101.636 147.969 101.68 148.017 101.775C146.868 101.967 146.102 102.302 146.102 102.685C146.102 103.26 147.826 103.69 149.932 103.69C152.038 103.69 153.762 103.211 153.762 102.685C153.762 102.302 152.948 101.967 151.751 101.775C151.769 101.681 151.819 101.596 151.894 101.536Z" fill="#23262A"/>
<path d="M166.912 95.299H164.128V102.919H162.97V95.299H160.18V94.321H166.912V95.299Z" fill="#23262A"/>
<path d="M167.626 98.059C167.818 97.643 168.054 97.319 168.334 97.087C168.614 96.851 168.956 96.733 169.36 96.733C169.488 96.733 169.61 96.747 169.726 96.775C169.846 96.803 169.952 96.847 170.044 96.907L169.966 97.705C169.942 97.805 169.882 97.855 169.786 97.855C169.73 97.855 169.648 97.843 169.54 97.819C169.432 97.795 169.31 97.783 169.174 97.783C168.982 97.783 168.81 97.811 168.658 97.867C168.51 97.923 168.376 98.007 168.256 98.119C168.14 98.227 168.034 98.363 167.938 98.527C167.846 98.687 167.762 98.871 167.686 99.079V102.919H166.612V96.841H167.224C167.34 96.841 167.42 96.863 167.464 96.907C167.508 96.951 167.538 97.027 167.554 97.135L167.626 98.059Z" fill="#23262A"/>
<path d="M175.981 96.841V102.919H175.345C175.193 102.919 175.097 102.845 175.057 102.697L174.973 102.043C174.709 102.335 174.413 102.571 174.085 102.751C173.757 102.927 173.381 103.015 172.957 103.015C172.625 103.015 172.331 102.961 172.075 102.853C171.823 102.741 171.611 102.585 171.439 102.385C171.267 102.185 171.137 101.943 171.049 101.659C170.965 101.375 170.923 101.061 170.923 100.717V96.841H171.991V100.717C171.991 101.177 172.095 101.533 172.303 101.785C172.515 102.037 172.837 102.163 173.269 102.163C173.585 102.163 173.879 102.089 174.151 101.941C174.427 101.789 174.681 101.581 174.913 101.317V96.841H175.981Z" fill="#23262A"/>
<path d="M183.752 100.873C183.84 100.873 183.918 100.907 183.986 100.975L184.622 101.665C184.27 102.101 183.836 102.435 183.32 102.667C182.808 102.899 182.192 103.015 181.472 103.015C180.828 103.015 180.248 102.905 179.732 102.685C179.22 102.465 178.782 102.159 178.418 101.767C178.054 101.375 177.774 100.907 177.578 100.363C177.386 99.819 177.29 99.225 177.29 98.581C177.29 97.929 177.394 97.333 177.602 96.793C177.81 96.249 178.102 95.781 178.478 95.389C178.858 94.997 179.31 94.693 179.834 94.477C180.358 94.257 180.938 94.147 181.574 94.147C182.206 94.147 182.766 94.251 183.254 94.459C183.746 94.667 184.164 94.939 184.508 95.275L183.968 96.025C183.936 96.073 183.894 96.115 183.842 96.151C183.794 96.187 183.726 96.205 183.638 96.205C183.578 96.205 183.516 96.189 183.452 96.157C183.388 96.121 183.318 96.079 183.242 96.031C183.166 95.979 183.078 95.923 182.978 95.863C182.878 95.803 182.762 95.749 182.63 95.701C182.498 95.649 182.344 95.607 182.168 95.575C181.996 95.539 181.796 95.521 181.568 95.521C181.18 95.521 180.824 95.591 180.5 95.731C180.18 95.867 179.904 96.067 179.672 96.331C179.44 96.591 179.26 96.911 179.132 97.291C179.004 97.667 178.94 98.097 178.94 98.581C178.94 99.069 179.008 99.503 179.144 99.883C179.284 100.263 179.472 100.583 179.708 100.843C179.944 101.103 180.222 101.303 180.542 101.443C180.862 101.579 181.206 101.647 181.574 101.647C181.794 101.647 181.992 101.635 182.168 101.611C182.348 101.587 182.512 101.549 182.66 101.497C182.812 101.445 182.954 101.379 183.086 101.299C183.222 101.215 183.356 101.113 183.488 100.993C183.528 100.957 183.57 100.929 183.614 100.909C183.658 100.885 183.704 100.873 183.752 100.873Z" fill="#23262A"/>
<path d="M186.976 97.423C187.216 97.199 187.48 97.017 187.768 96.877C188.056 96.737 188.394 96.667 188.782 96.667C189.118 96.667 189.416 96.725 189.676 96.841C189.936 96.953 190.152 97.113 190.324 97.321C190.5 97.525 190.632 97.771 190.72 98.059C190.812 98.343 190.858 98.657 190.858 99.001V102.919H189.376V99.001C189.376 98.625 189.29 98.335 189.118 98.131C188.946 97.923 188.684 97.819 188.332 97.819C188.076 97.819 187.836 97.877 187.612 97.993C187.388 98.109 187.176 98.267 186.976 98.467V102.919H185.494V94.003H186.976V97.423Z" fill="#23262A"/>
<path d="M196.233 99.133C196.233 98.941 196.205 98.761 196.149 98.593C196.097 98.421 196.017 98.271 195.909 98.143C195.801 98.015 195.663 97.915 195.495 97.843C195.331 97.767 195.139 97.729 194.919 97.729C194.491 97.729 194.153 97.851 193.905 98.095C193.661 98.339 193.505 98.685 193.437 99.133H196.233ZM193.407 100.027C193.431 100.343 193.487 100.617 193.575 100.849C193.663 101.077 193.779 101.267 193.923 101.419C194.067 101.567 194.237 101.679 194.433 101.755C194.633 101.827 194.853 101.863 195.093 101.863C195.333 101.863 195.539 101.835 195.711 101.779C195.887 101.723 196.039 101.661 196.167 101.593C196.299 101.525 196.413 101.463 196.509 101.407C196.609 101.351 196.705 101.323 196.797 101.323C196.921 101.323 197.013 101.369 197.073 101.461L197.499 102.001C197.335 102.193 197.151 102.355 196.947 102.487C196.743 102.615 196.529 102.719 196.305 102.799C196.085 102.875 195.859 102.929 195.627 102.961C195.399 102.993 195.177 103.009 194.961 103.009C194.533 103.009 194.135 102.939 193.767 102.799C193.399 102.655 193.079 102.445 192.807 102.169C192.535 101.889 192.321 101.545 192.165 101.137C192.009 100.725 191.931 100.249 191.931 99.709C191.931 99.289 191.999 98.895 192.135 98.527C192.271 98.155 192.465 97.833 192.717 97.561C192.973 97.285 193.283 97.067 193.647 96.907C194.015 96.747 194.429 96.667 194.889 96.667C195.277 96.667 195.635 96.729 195.963 96.853C196.291 96.977 196.573 97.159 196.809 97.399C197.045 97.635 197.229 97.927 197.361 98.275C197.497 98.619 197.565 99.013 197.565 99.457C197.565 99.681 197.541 99.833 197.493 99.913C197.445 99.989 197.353 100.027 197.217 100.027H193.407Z" fill="#23262A"/>
<path d="M203.087 98.065C203.043 98.121 202.999 98.165 202.955 98.197C202.915 98.229 202.855 98.245 202.775 98.245C202.699 98.245 202.625 98.223 202.553 98.179C202.481 98.131 202.395 98.079 202.295 98.023C202.195 97.963 202.075 97.911 201.935 97.867C201.799 97.819 201.629 97.795 201.425 97.795C201.165 97.795 200.937 97.843 200.741 97.939C200.545 98.031 200.381 98.165 200.249 98.341C200.121 98.517 200.025 98.731 199.961 98.983C199.897 99.231 199.865 99.513 199.865 99.829C199.865 100.157 199.899 100.449 199.967 100.705C200.039 100.961 200.141 101.177 200.273 101.353C200.405 101.525 200.565 101.657 200.753 101.749C200.941 101.837 201.153 101.881 201.389 101.881C201.625 101.881 201.815 101.853 201.959 101.797C202.107 101.737 202.231 101.673 202.331 101.605C202.431 101.533 202.517 101.469 202.589 101.413C202.665 101.353 202.749 101.323 202.841 101.323C202.961 101.323 203.051 101.369 203.111 101.461L203.537 102.001C203.373 102.193 203.195 102.355 203.003 102.487C202.811 102.615 202.611 102.719 202.403 102.799C202.199 102.875 201.987 102.929 201.767 102.961C201.551 102.993 201.335 103.009 201.119 103.009C200.739 103.009 200.381 102.939 200.045 102.799C199.709 102.655 199.415 102.447 199.163 102.175C198.911 101.903 198.711 101.571 198.563 101.179C198.419 100.783 198.347 100.333 198.347 99.829C198.347 99.377 198.411 98.959 198.539 98.575C198.671 98.187 198.863 97.853 199.115 97.573C199.367 97.289 199.679 97.067 200.051 96.907C200.423 96.747 200.851 96.667 201.335 96.667C201.795 96.667 202.197 96.741 202.541 96.889C202.889 97.037 203.201 97.249 203.477 97.525L203.087 98.065Z" fill="#23262A"/>
<path d="M205.948 94.003V99.109H206.224C206.324 99.109 206.402 99.097 206.458 99.073C206.518 99.045 206.578 98.991 206.638 98.911L208.168 97.021C208.232 96.937 208.302 96.873 208.378 96.829C208.458 96.785 208.56 96.763 208.684 96.763H210.04L208.126 99.049C207.99 99.229 207.842 99.367 207.682 99.463C207.766 99.523 207.84 99.593 207.904 99.673C207.972 99.753 208.036 99.839 208.096 99.931L210.148 102.919H208.81C208.694 102.919 208.594 102.901 208.51 102.865C208.426 102.825 208.356 102.755 208.3 102.655L206.728 100.321C206.672 100.229 206.614 100.169 206.554 100.141C206.494 100.113 206.404 100.099 206.284 100.099H205.948V102.919H204.466V94.003H205.948Z" fill="#23262A"/>
<path d="M210.673 94.321H213.589V94.951H212.509V97.873H211.759V94.951H210.673V94.321ZM218.215 94.321V97.873H217.561V95.683L217.609 95.239L216.511 97.249C216.463 97.361 216.377 97.417 216.253 97.417H216.145C216.021 97.417 215.933 97.361 215.881 97.249L214.777 95.239L214.831 95.683V97.873H214.165V94.321H214.801C214.869 94.321 214.917 94.329 214.945 94.345C214.977 94.361 215.015 94.395 215.059 94.447L216.073 96.265C216.125 96.373 216.165 96.477 216.193 96.577C216.225 96.465 216.267 96.361 216.319 96.265L217.333 94.447C217.373 94.395 217.407 94.361 217.435 94.345C217.467 94.329 217.517 94.321 217.585 94.321H218.215Z" fill="#23262A"/>
</g>
<path fill-rule="evenodd" clip-rule="evenodd" d="M150.865 202.46L152.836 206.682C152.892 206.807 152.992 206.907 153.117 206.963L157.339 208.934C157.488 208.934 157.632 208.993 157.737 209.098C157.843 209.204 157.902 209.347 157.902 209.497C157.902 209.646 157.843 209.789 157.737 209.895C157.632 210 157.488 210.059 157.339 210.059L153.117 212.03C152.992 212.086 152.892 212.186 152.836 212.311L150.865 216.533C150.865 216.683 150.806 216.826 150.701 216.931C150.595 217.037 150.452 217.096 150.302 217.096C150.153 217.096 150.01 217.037 149.904 216.931C149.799 216.826 149.74 216.683 149.74 216.533L147.769 212.311C147.713 212.186 147.613 212.086 147.488 212.03L142.984 210.059C142.835 210.059 142.692 210 142.586 209.895C142.481 209.789 142.421 209.646 142.421 209.497C142.421 209.347 142.481 209.204 142.586 209.098C142.692 208.993 142.835 208.934 142.984 208.934L147.206 206.963C147.331 206.907 147.431 206.807 147.488 206.682L149.458 202.46C149.458 202.311 149.517 202.167 149.623 202.062C149.728 201.956 149.872 201.897 150.021 201.897C150.17 201.897 150.313 201.956 150.419 202.062C150.525 202.167 150.584 202.311 150.584 202.46H150.865ZM128.066 195.705L129.192 198.519C129.192 198.519 129.192 198.801 129.474 198.801L132.288 199.927C132.363 199.927 132.435 199.956 132.487 200.009C132.54 200.062 132.57 200.133 132.57 200.208C132.57 200.283 132.54 200.354 132.487 200.407C132.435 200.46 132.363 200.49 132.288 200.49L129.474 201.615C129.399 201.615 129.328 201.645 129.275 201.698C129.222 201.751 129.192 201.822 129.192 201.897L128.066 204.712C128.066 204.786 128.037 204.858 127.984 204.911C127.931 204.963 127.86 204.993 127.785 204.993C127.71 204.993 127.639 204.963 127.586 204.911C127.533 204.858 127.503 204.786 127.503 204.712L126.378 201.897C126.378 201.822 126.348 201.751 126.295 201.698C126.242 201.645 126.171 201.615 126.096 201.615L123.281 200.49C123.207 200.49 123.135 200.46 123.082 200.407C123.03 200.354 123 200.283 123 200.208C123 200.133 123.03 200.062 123.082 200.009C123.135 199.956 123.207 199.927 123.281 199.927L126.096 198.801C126.171 198.801 126.242 198.771 126.295 198.718C126.348 198.666 126.378 198.594 126.378 198.519L127.503 195.705C127.503 195.63 127.533 195.558 127.586 195.506C127.639 195.453 127.71 195.423 127.785 195.423C127.86 195.423 127.931 195.453 127.984 195.506C128.037 195.558 128.066 195.63 128.066 195.705ZM432.052 88.1836L434.304 93.25C434.374 93.3649 434.471 93.4614 434.586 93.5315L439.652 95.7832C439.768 95.8603 439.863 95.9648 439.929 96.0876C439.995 96.2104 440.03 96.3476 440.03 96.4869C440.03 96.6262 439.995 96.7634 439.929 96.8862C439.863 97.009 439.768 97.1136 439.652 97.1906L434.586 99.4423C434.471 99.5124 434.374 99.6089 434.304 99.7238L432.052 104.79C431.975 104.906 431.871 105.002 431.748 105.067C431.625 105.133 431.488 105.168 431.349 105.168C431.209 105.168 431.072 105.133 430.949 105.067C430.827 105.002 430.722 104.906 430.645 104.79L428.393 99.7238C428.323 99.6089 428.227 99.5124 428.112 99.4423L423.045 97.1906C422.929 97.1136 422.834 97.009 422.768 96.8862C422.702 96.7634 422.668 96.6262 422.668 96.4869C422.668 96.3476 422.702 96.2104 422.768 96.0876C422.834 95.9648 422.929 95.8603 423.045 95.7832L428.112 93.5315C428.227 93.4614 428.323 93.3649 428.393 93.25L430.645 88.1836C430.722 88.0675 430.827 87.9722 430.949 87.9063C431.072 87.8404 431.209 87.8059 431.349 87.8059C431.488 87.8059 431.625 87.8404 431.748 87.9063C431.871 87.9722 431.975 88.0675 432.052 88.1836ZM440.496 60.0367L441.622 62.8514C441.622 62.9261 441.652 62.9976 441.705 63.0504C441.758 63.1032 441.829 63.1329 441.904 63.1329L444.719 64.2587C444.793 64.2587 444.865 64.2884 444.918 64.3412C444.97 64.394 445 64.4656 445 64.5402C445 64.6149 444.97 64.6865 444.918 64.7392C444.865 64.792 444.793 64.8217 444.719 64.8217L441.904 65.9476C441.829 65.9476 441.758 65.9772 441.705 66.03C441.652 66.0828 441.622 66.1544 441.622 66.229L440.496 69.0437C440.496 69.1184 440.467 69.19 440.414 69.2427C440.361 69.2955 440.29 69.3252 440.215 69.3252C440.14 69.3252 440.069 69.2955 440.016 69.2427C439.963 69.19 439.934 69.1184 439.934 69.0437L438.808 66.229C438.808 66.1544 438.778 66.0828 438.725 66.03C438.672 65.9772 438.601 65.9476 438.526 65.9476L435.712 64.8217C435.637 64.8217 435.565 64.792 435.513 64.7392C435.46 64.6865 435.43 64.6149 435.43 64.5402C435.43 64.4656 435.46 64.394 435.513 64.3412C435.565 64.2884 435.637 64.2587 435.712 64.2587L438.526 63.1329C438.601 63.1329 438.672 63.1032 438.725 63.0504C438.778 62.9976 438.808 62.9261 438.808 62.8514L439.934 60.0367C439.934 59.9621 439.963 59.8905 440.016 59.8377C440.069 59.7849 440.14 59.7552 440.215 59.7552C440.29 59.7552 440.361 59.7849 440.414 59.8377C440.467 59.8905 440.496 59.9621 440.496 60.0367ZM412.35 53.5629L414.32 57.5035L417.979 59.1923C418.128 59.1923 418.272 59.2516 418.377 59.3572C418.483 59.4628 418.542 59.6059 418.542 59.7552C418.542 59.9045 418.483 60.0477 418.377 60.1533C418.272 60.2589 418.128 60.3182 417.979 60.3182L414.32 62.007C414.195 62.0634 414.095 62.1635 414.038 62.2885L412.35 65.9476C412.35 66.0969 412.29 66.24 412.185 66.3456C412.079 66.4512 411.936 66.5105 411.787 66.5105C411.637 66.5105 411.494 66.4512 411.389 66.3456C411.283 66.24 411.224 66.0969 411.224 65.9476L409.535 62.2885C409.479 62.1635 409.378 62.0634 409.253 62.007L405.594 60.3182C405.445 60.3182 405.302 60.2589 405.196 60.1533C405.091 60.0477 405.031 59.9045 405.031 59.7552C405.031 59.6059 405.091 59.4628 405.196 59.3572C405.302 59.2516 405.445 59.1923 405.594 59.1923L409.253 57.5035C409.378 57.4471 409.479 57.347 409.535 57.222L411.224 53.5629C411.224 53.4136 411.283 53.2705 411.389 53.1649C411.494 53.0593 411.637 53 411.787 53C411.936 53 412.079 53.0593 412.185 53.1649C412.29 53.2705 412.35 53.4136 412.35 53.5629Z" fill="#EEF0F1"/>
<defs>
<filter id="filter0_d_96_2382" x="173.345" y="84.9558" width="222.205" height="92.516" filterUnits="userSpaceOnUse" color-interpolation-filters="sRGB">
<feFlood flood-opacity="0" result="BackgroundImageFix"/>
<feColorMatrix in="SourceAlpha" type="matrix" values="0 0 0 0 0 0 0 0 0 0 0 0 0 0 0 0 0 0 127 0" result="hardAlpha"/>
<feOffset dy="2.6105"/>
<feGaussianBlur stdDeviation="1.82735"/>
<feColorMatrix type="matrix" values="0 0 0 0 0.870588 0 0 0 0 0.870588 0 0 0 0 0.870588 0 0 0 1 0"/>
<feBlend mode="normal" in2="BackgroundImageFix" result="effect1_dropShadow_96_2382"/>
<feBlend mode="normal" in="SourceGraphic" in2="effect1_dropShadow_96_2382" result="shape"/>
</filter>
<filter id="filter1_ddd_96_2382" x="125" y="80" width="113.214" height="40" filterUnits="userSpaceOnUse" color-interpolation-filters="sRGB">
<feFlood flood-opacity="0" result="BackgroundImageFix"/>
<feColorMatrix in="SourceAlpha" type="matrix" values="0 0 0 0 0 0 0 0 0 0 0 0 0 0 0 0 0 0 127 0" result="hardAlpha"/>
<feOffset dy="1"/>
<feGaussianBlur stdDeviation="4"/>
<feColorMatrix type="matrix" values="0 0 0 0 0 0 0 0 0 0 0 0 0 0 0 0 0 0 0.06 0"/>
<feBlend mode="normal" in2="BackgroundImageFix" result="effect1_dropShadow_96_2382"/>
<feColorMatrix in="SourceAlpha" type="matrix" values="0 0 0 0 0 0 0 0 0 0 0 0 0 0 0 0 0 0 127 0" result="hardAlpha"/>
<feOffset dy="3"/>
<feGaussianBlur stdDeviation="2"/>
<feColorMatrix type="matrix" values="0 0 0 0 0 0 0 0 0 0 0 0 0 0 0 0 0 0 0.07 0"/>
<feBlend mode="normal" in2="effect1_dropShadow_96_2382" result="effect2_dropShadow_96_2382"/>
<feColorMatrix in="SourceAlpha" type="matrix" values="0 0 0 0 0 0 0 0 0 0 0 0 0 0 0 0 0 0 127 0" result="hardAlpha"/>
<feMorphology radius="2" operator="erode" in="SourceAlpha" result="effect3_dropShadow_96_2382"/>
<feOffset dy="3"/>
<feGaussianBlur stdDeviation="1.5"/>
<feColorMatrix type="matrix" values="0 0 0 0 0 0 0 0 0 0 0 0 0 0 0 0 0 0 0.1 0"/>
<feBlend mode="normal" in2="effect2_dropShadow_96_2382" result="effect3_dropShadow_96_2382"/>
<feBlend mode="normal" in="SourceGraphic" in2="effect3_dropShadow_96_2382" result="shape"/>
</filter>
<linearGradient id="paint0_linear_96_2382" x1="297" y1="47" x2="297" y2="148" gradientUnits="userSpaceOnUse">
<stop stop-color="#E7F7FF"/>
<stop offset="1" stop-color="#EDF5FF"/>
</linearGradient>
<linearGradient id="paint1_linear_96_2382" x1="263.956" y1="170.534" x2="199.524" y2="199.088" gradientUnits="userSpaceOnUse">
<stop stop-color="#CEECFF"/>
<stop offset="1" stop-color="#F5F5F5"/>
</linearGradient>
<linearGradient id="paint2_linear_96_2382" x1="262.12" y1="132.843" x2="190.378" y2="164.636" gradientUnits="userSpaceOnUse">
<stop stop-color="#CEECFF"/>
<stop offset="1" stop-color="#F5F5F5"/>
</linearGradient>
<linearGradient id="paint3_linear_96_2382" x1="260.988" y1="99.4626" x2="185.782" y2="132.791" gradientUnits="userSpaceOnUse">
<stop stop-color="#CEECFF"/>
<stop offset="1" stop-color="#F5F5F5"/>
</linearGradient>
</defs>
</svg>